<svg width="18" height="22" viewBox="0 0 18 22" fill="none" xmlns="http://www.w3.org/2000/svg">
<path d="M0 18.7V16.5H2.25V8.8C2.25 7.27833 2.71875 5.92644 3.65625 4.7443C4.59375 3.56217 5.8125 2.7874 7.3125 2.42V1.65C7.3125 1.19167 7.47675 0.802269 7.80525 0.481802C8.13375 0.161336 8.532 0.000735833 9 2.5e-06C9.468 -0.000730833 9.86663 0.159869 10.1959 0.481802C10.5251 0.803736 10.689 1.19314 10.6875 1.65V2.42C12.1875 2.78667 13.4062 3.56144 14.3438 4.7443C15.2812 5.92717 15.75 7.27907 15.75 8.8V16.5H18V18.7H0ZM9 22C8.38125 22 7.85175 21.7848 7.4115 21.3543C6.97125 20.9238 6.75075 20.4057 6.75 19.8H11.25C11.25 20.405 11.0299 20.9231 10.5896 21.3543C10.1494 21.7855 9.6195 22.0007 9 22ZM4.5 16.5H13.5V8.8C13.5 7.59 13.0594 6.55417 12.1781 5.6925C11.2969 4.83084 10.2375 4.4 9 4.4C7.7625 4.4 6.70313 4.83084 5.82188 5.6925C4.94063 6.55417 4.5 7.59 4.5 8.8V16.5Z" fill="#646464"/>
</svg>
