<svg width="20" height="20" viewBox="0 0 20 20" fill="none" xmlns="http://www.w3.org/2000/svg">
<path d="M15 4.00201C15.1978 4.00201 15.3911 4.06069 15.5556 4.17063C15.72 4.28056 15.8482 4.43682 15.9239 4.61964C15.9996 4.80245 16.0194 5.00362 15.9808 5.1977C15.9422 5.39177 15.8469 5.57005 15.7071 5.70997C15.5672 5.84989 15.3891 5.94518 15.1951 5.98378C15.0011 6.02239 14.8 6.00257 14.6173 5.92685C14.4346 5.85112 14.2784 5.72289 14.1685 5.55836C14.0586 5.39383 14 5.20039 14 5.00251C14 4.73716 14.1053 4.48268 14.2929 4.29505C14.4804 4.10742 14.7348 4.00201 15 4.00201ZM0.289984 9.78489L9.76998 0.320176C9.86322 0.219589 9.97614 0.139261 10.1017 0.0841844C10.2273 0.0291074 10.3629 0.000458038 10.5 1.67226e-05H16.5C16.6316 -0.00074455 16.7621 0.0244931 16.8839 0.0742825C17.0057 0.124072 17.1165 0.197434 17.21 0.290161L19.71 2.7814C19.8027 2.87489 19.876 2.98576 19.9258 3.10766C19.9755 3.22956 20.0007 3.36008 20 3.49176V9.49475C19.9963 9.75965 19.8927 10.0134 19.71 10.2051L10.22 19.7098C10.0283 19.8927 9.77475 19.9963 9.50998 20C9.37838 20.0007 9.24791 19.9755 9.12608 19.9257C9.00424 19.8759 8.89342 19.8026 8.79998 19.7098L0.289984 11.1956C0.197302 11.1021 0.123976 10.9912 0.0742111 10.8693C0.0244465 10.7474 -0.000778059 10.6169 -1.71661e-05 10.4852C0.00615786 10.2238 0.109564 9.97409 0.289984 9.78489ZM9.50998 17.5988L18 9.09455V3.90196L16.1 2.00101H10.92L2.41998 10.4952L9.50998 17.5988Z" fill="#1918BC"/>
</svg>
