<svg width="18" height="20" viewBox="0 0 18 20" fill="none" xmlns="http://www.w3.org/2000/svg">
<path d="M1.8 1.48596V17.7127L7.3134 14.0706C7.79213 13.7544 8.38694 13.5822 9 13.5822C9.61306 13.5822 10.2079 13.7544 10.6866 14.0706L16.2 17.7112V1.48596H1.8ZM0.9 0H17.1C17.3387 0 17.5676 0.0782781 17.7364 0.217614C17.9052 0.35695 18 0.54593 18 0.742981V19.2581C17.9998 19.3979 17.9517 19.5348 17.8615 19.6531C17.7712 19.7714 17.6423 19.8662 17.4897 19.9268C17.337 19.9873 17.1667 20.011 16.9985 19.9953C16.8302 19.9795 16.6707 19.9248 16.5384 19.8376L9.5616 15.2311C9.40212 15.126 9.20409 15.0687 9 15.0687C8.79591 15.0687 8.59788 15.126 8.4384 15.2311L1.4616 19.8376C1.32926 19.9248 1.1698 19.9795 1.00152 19.9953C0.833252 20.011 0.663004 19.9873 0.510346 19.9268C0.357688 19.8662 0.228815 19.7714 0.138538 19.6531C0.0482599 19.5348 0.000241079 19.3979 0 19.2581V0.742981C0 0.54593 0.0948213 0.35695 0.263604 0.217614C0.432387 0.0782781 0.661305 0 0.9 0Z" fill="#1918BC"/>
</svg>
